<svg width="21" height="21" viewBox="0 0 21 21" fill="none" xmlns="http://www.w3.org/2000/svg">
<mask id="mask0_259_467" style="mask-type:alpha" maskUnits="userSpaceOnUse" x="0" y="0" width="21" height="21">
<rect width="20" height="20" transform="matrix(-1 0 0 1 20.5 0.777847)" fill="#D9D9D9"/>
</mask>
<g mask="url(#mask0_259_467)">
<path d="M12.5416 10.7779L6.41661 16.9029C6.20828 17.1112 6.10759 17.3543 6.11453 17.6321C6.12148 17.9099 6.22911 18.1529 6.43745 18.3612C6.64578 18.5696 6.88884 18.6737 7.16661 18.6737C7.44439 18.6737 7.68745 18.5696 7.89578 18.3612L14.3124 11.9654C14.4791 11.7987 14.6041 11.6112 14.6874 11.4029C14.7708 11.1946 14.8124 10.9862 14.8124 10.7779C14.8124 10.5696 14.7708 10.3612 14.6874 10.1529C14.6041 9.94458 14.4791 9.75708 14.3124 9.59041L7.89578 3.17374C7.68745 2.96541 7.44092 2.86471 7.1562 2.87166C6.87148 2.8786 6.62495 2.98624 6.41661 3.19458C6.20828 3.40291 6.10411 3.64596 6.10411 3.92374C6.10411 4.20152 6.20828 4.44458 6.41661 4.65291L12.5416 10.7779Z" fill="#8F98A8"/>
</g>
</svg>
