<svg width="16" height="17" viewBox="0 0 16 17" fill="none" xmlns="http://www.w3.org/2000/svg">
<mask id="mask0_259_453" style="mask-type:alpha" maskUnits="userSpaceOnUse" x="0" y="0" width="16" height="17">
<rect width="16" height="16" transform="matrix(-1 0 0 1 16 0.577347)" fill="#D9D9D9"/>
</mask>
<g mask="url(#mask0_259_453)">
<path d="M7.96233 10.2397L3.06233 5.3397C2.89566 5.17304 2.70122 5.09248 2.479 5.09804C2.25677 5.10359 2.06233 5.1897 1.89566 5.35637C1.729 5.52304 1.64566 5.71748 1.64566 5.9397C1.64566 6.16193 1.729 6.35637 1.89566 6.52304L7.01233 11.6564C7.14566 11.7897 7.29566 11.8897 7.46233 11.9564C7.62899 12.023 7.79566 12.0564 7.96233 12.0564C8.12899 12.0564 8.29566 12.023 8.46233 11.9564C8.62899 11.8897 8.77899 11.7897 8.91233 11.6564L14.0457 6.52304C14.2123 6.35637 14.2929 6.15915 14.2873 5.93137C14.2818 5.70359 14.1957 5.50637 14.029 5.3397C13.8623 5.17304 13.6679 5.0897 13.4457 5.0897C13.2234 5.0897 13.029 5.17304 12.8623 5.3397L7.96233 10.2397Z" fill="#8F98A8"/>
</g>
</svg>
