<svg width="13" height="13" viewBox="0 0 13 13" fill="none" xmlns="http://www.w3.org/2000/svg">
<mask id="mask0_278_548" style="mask-type:alpha" maskUnits="userSpaceOnUse" x="0" y="0" width="13" height="13">
<rect width="13" height="13" transform="matrix(1 0 0 -1 0 13)" fill="#D9D9D9"/>
</mask>
<g mask="url(#mask0_278_548)">
<path d="M6.53061 5.14935L10.5119 9.1306C10.6473 9.26602 10.8053 9.33147 10.9858 9.32695C11.1664 9.32244 11.3244 9.25248 11.4598 9.11706C11.5952 8.98164 11.6629 8.82366 11.6629 8.6431C11.6629 8.46254 11.5952 8.30456 11.4598 8.16914L7.30248 3.99831C7.19415 3.88998 7.07228 3.80873 6.93686 3.75456C6.80144 3.70039 6.66603 3.67331 6.53061 3.67331C6.39519 3.67331 6.25978 3.70039 6.12436 3.75456C5.98894 3.80873 5.86707 3.88998 5.75873 3.99831L1.5879 8.16914C1.45248 8.30456 1.38703 8.4648 1.39155 8.64987C1.39606 8.83494 1.46602 8.99518 1.60144 9.1306C1.73686 9.26602 1.89484 9.33373 2.0754 9.33373C2.25596 9.33373 2.41394 9.26602 2.54936 9.1306L6.53061 5.14935Z" fill="#8F98A8"/>
</g>
</svg>
